<svg width="60" height="60" viewBox="0 0 60 60" fill="none" xmlns="http://www.w3.org/2000/svg">
<path d="M53.75 23.75H6.25C5.25544 23.75 4.30161 24.1451 3.59835 24.8483C2.89509 25.5516 2.5 26.5054 2.5 27.5C2.5 28.4946 2.89509 29.4484 3.59835 30.1517C4.30161 30.8549 5.25544 31.25 6.25 31.25H53.75C54.7446 31.25 55.6984 30.8549 56.4016 30.1517C57.1049 29.4484 57.5 28.4946 57.5 27.5C57.5 26.5054 57.1049 25.5516 56.4016 24.8483C55.6984 24.1451 54.7446 23.75 53.75 23.75Z" fill="#393F44"/>
<path d="M44.9998 13.4505L42.4998 3.45053C42.4314 3.17319 42.27 2.92765 42.0426 2.7548C41.8151 2.58195 41.5354 2.49221 41.2498 2.50053H18.7498C18.4643 2.49221 18.1845 2.58195 17.9571 2.7548C17.7296 2.92765 17.5683 3.17319 17.4998 3.45053L14.9998 13.4505C14.953 13.635 14.9489 13.8278 14.9879 14.0141C15.0269 14.2004 15.108 14.3753 15.2248 14.5255C15.3464 14.6796 15.5025 14.8029 15.6806 14.8854C15.8587 14.968 16.0537 15.0074 16.2498 15.0005H43.7498C43.9397 15.0016 44.1273 14.9593 44.2984 14.877C44.4695 14.7947 44.6196 14.6745 44.7373 14.5255C44.8607 14.3785 44.9485 14.2051 44.994 14.0187C45.0395 13.8322 45.0415 13.6378 44.9998 13.4505Z" fill="#FDCC2C"/>
<path d="M52.4999 29.6003L48.6374 18.0253C48.2197 16.7711 47.4151 15.6816 46.3393 14.9134C45.2634 14.1453 43.9718 13.7381 42.6499 13.7503H17.3499C16.0387 13.7513 14.761 14.1646 13.6977 14.9318C12.6343 15.699 11.8392 16.7812 11.4249 18.0253L7.56239 29.6003C7.5004 29.7882 7.48394 29.9883 7.51437 30.1838C7.54479 30.3794 7.62123 30.565 7.73739 30.7253C7.85241 30.8868 8.00421 31.0187 8.18027 31.11C8.35632 31.2013 8.55157 31.2493 8.74989 31.2503H51.2499C51.4482 31.2493 51.6434 31.2013 51.8195 31.11C51.9956 31.0187 52.1474 30.8868 52.2624 30.7253C52.3891 30.5704 52.4768 30.3875 52.5182 30.1917C52.5595 29.9959 52.5532 29.7931 52.4999 29.6003Z" fill="#F5C12E"/>
<path d="M47.4999 29.5997L43.7499 18.3497C43.6629 18.091 43.4936 17.8679 43.2679 17.7144C43.0422 17.5609 42.7725 17.4855 42.4999 17.4997H17.4999C17.2378 17.4991 16.9822 17.5808 16.7691 17.7333C16.556 17.8858 16.3962 18.1015 16.3124 18.3497L12.5624 29.5997C12.5004 29.7877 12.4839 29.9877 12.5144 30.1833C12.5448 30.3789 12.6212 30.5645 12.7374 30.7247C12.8524 30.8863 13.0042 31.0182 13.1803 31.1095C13.3563 31.2007 13.5516 31.2488 13.7499 31.2497H46.2499C46.4482 31.2488 46.6434 31.2007 46.8195 31.1095C46.9956 31.0182 47.1474 30.8863 47.2624 30.7247C47.3891 30.5699 47.4768 30.3869 47.5182 30.1912C47.5595 29.9954 47.5532 29.7926 47.4999 29.5997Z" fill="white"/>
<path d="M50 28.75H10C8.01088 28.75 6.10322 29.5402 4.6967 30.9467C3.29018 32.3532 2.5 34.2609 2.5 36.25V41.25C2.5 43.5706 3.42187 45.7962 5.06282 47.4372C6.70376 49.0781 8.92936 50 11.25 50H48.75C51.0706 50 53.2962 49.0781 54.9372 47.4372C56.5781 45.7962 57.5 43.5706 57.5 41.25V36.25C57.5 34.2609 56.7098 32.3532 55.3033 30.9467C53.8968 29.5402 51.9891 28.75 50 28.75Z" fill="#FDCC2C"/>
<path d="M47.5 45C50.9518 45 53.75 42.2018 53.75 38.75C53.75 35.2982 50.9518 32.5 47.5 32.5C44.0482 32.5 41.25 35.2982 41.25 38.75C41.25 42.2018 44.0482 45 47.5 45Z" fill="white"/>
<path d="M12.5 45C15.9518 45 18.75 42.2018 18.75 38.75C18.75 35.2982 15.9518 32.5 12.5 32.5C9.04822 32.5 6.25 35.2982 6.25 38.75C6.25 42.2018 9.04822 45 12.5 45Z" fill="white"/>
<path d="M23.75 6.24992H21.25C20.9185 6.24992 20.6005 6.38162 20.3661 6.61604C20.1317 6.85046 20 7.1684 20 7.49992C20 7.83144 20.1317 8.14938 20.3661 8.38381C20.6005 8.61823 20.9185 8.74992 21.25 8.74992V11.2499C21.25 11.5814 21.3817 11.8994 21.6161 12.1338C21.8505 12.3682 22.1685 12.4999 22.5 12.4999C22.8315 12.4999 23.1495 12.3682 23.3839 12.1338C23.6183 11.8994 23.75 11.5814 23.75 11.2499V8.74992C24.0815 8.74992 24.3995 8.61823 24.6339 8.38381C24.8683 8.14938 25 7.83144 25 7.49992C25 7.1684 24.8683 6.85046 24.6339 6.61604C24.3995 6.38162 24.0815 6.24992 23.75 6.24992ZM28.75 7.09992C28.6678 6.84984 28.5087 6.63209 28.2955 6.47771C28.0823 6.32334 27.8257 6.24023 27.5625 6.24023C27.2993 6.24023 27.0427 6.32334 26.8295 6.47771C26.6163 6.63209 26.4572 6.84984 26.375 7.09992L25.125 10.8499C25.0189 11.1649 25.0423 11.5091 25.19 11.8068C25.3377 12.1045 25.5976 12.3313 25.9125 12.4374C26.2274 12.5435 26.5716 12.5201 26.8693 12.3725C27.1671 12.2248 27.3939 11.9649 27.5 11.6499V11.4499L27.5625 11.6499C27.6464 11.8982 27.8061 12.1138 28.0192 12.2664C28.2323 12.4189 28.4879 12.5006 28.75 12.4999C28.8855 12.4965 29.0199 12.4755 29.15 12.4374C29.3118 12.3918 29.4627 12.314 29.5938 12.2086C29.7248 12.1033 29.8332 11.9726 29.9126 11.8244C29.9919 11.6762 30.0406 11.5135 30.0556 11.3461C30.0706 11.1786 30.0517 11.0099 30 10.8499L28.75 7.09992ZM35.6875 6.46242C35.4119 6.28151 35.076 6.21678 34.753 6.28233C34.4299 6.34788 34.1458 6.53841 33.9625 6.81242L33.75 7.12492L33.5375 6.81242C33.3421 6.56987 33.0632 6.40899 32.7555 6.3613C32.4477 6.3136 32.1332 6.38252 31.8736 6.55456C31.6139 6.7266 31.4279 6.98937 31.3519 7.2914C31.2758 7.59343 31.3153 7.91296 31.4625 8.18742L32.25 9.43742L31.4625 10.6249C31.2816 10.9005 31.2169 11.2364 31.2824 11.5595C31.348 11.8825 31.5385 12.1666 31.8125 12.3499C32.021 12.469 32.2609 12.5213 32.5 12.4999C32.7059 12.4989 32.9083 12.447 33.0893 12.3488C33.2703 12.2507 33.4243 12.1094 33.5375 11.9374L33.75 11.6249L33.9625 11.9374C34.0757 12.1094 34.2297 12.2507 34.4107 12.3488C34.5917 12.447 34.7941 12.4989 35 12.4999C35.2458 12.5027 35.4862 12.4284 35.6875 12.2874C35.9615 12.1041 36.152 11.82 36.2176 11.497C36.2831 11.1739 36.2184 10.838 36.0375 10.5624L35.25 9.37492L36.0375 8.12492C36.1994 7.85469 36.2532 7.53331 36.1884 7.22507C36.1235 6.91683 35.9446 6.64445 35.6875 6.46242ZM38.75 6.24992C38.4185 6.24992 38.1005 6.38162 37.8661 6.61604C37.6317 6.85046 37.5 7.1684 37.5 7.49992V11.2499C37.5 11.5814 37.6317 11.8994 37.8661 12.1338C38.1005 12.3682 38.4185 12.4999 38.75 12.4999C39.0815 12.4999 39.3995 12.3682 39.6339 12.1338C39.8683 11.8994 40 11.5814 40 11.2499V7.49992C40 7.1684 39.8683 6.85046 39.6339 6.61604C39.3995 6.38162 39.0815 6.24992 38.75 6.24992Z" fill="#DB9800"/>
<path d="M37.5 37.5H22.5C22.1685 37.5 21.8505 37.3683 21.6161 37.1339C21.3817 36.8995 21.25 36.5815 21.25 36.25C21.25 35.9185 21.3817 35.6005 21.6161 35.3661C21.8505 35.1317 22.1685 35 22.5 35H37.5C37.8315 35 38.1495 35.1317 38.3839 35.3661C38.6183 35.6005 38.75 35.9185 38.75 36.25C38.75 36.5815 38.6183 36.8995 38.3839 37.1339C38.1495 37.3683 37.8315 37.5 37.5 37.5ZM36.25 42.5H23.75C23.4185 42.5 23.1005 42.3683 22.8661 42.1339C22.6317 41.8995 22.5 41.5815 22.5 41.25C22.5 40.9185 22.6317 40.6005 22.8661 40.3661C23.1005 40.1317 23.4185 40 23.75 40H36.25C36.5815 40 36.8995 40.1317 37.1339 40.3661C37.3683 40.6005 37.5 40.9185 37.5 41.25C37.5 41.5815 37.3683 41.8995 37.1339 42.1339C36.8995 42.3683 36.5815 42.5 36.25 42.5Z" fill="#DB9800"/>
<path d="M53.75 46.25H6.25C5.91848 46.25 5.60054 46.3817 5.36612 46.6161C5.1317 46.8505 5 47.1685 5 47.5V53.75C5 54.7446 5.39509 55.6984 6.09835 56.4016C6.80161 57.1049 7.75544 57.5 8.75 57.5H11.25C12.2446 57.5 13.1984 57.1049 13.9017 56.4016C14.6049 55.6984 15 54.7446 15 53.75V50H45V53.75C45 54.7446 45.3951 55.6984 46.0984 56.4016C46.8016 57.1049 47.7554 57.5 48.75 57.5H51.25C52.2446 57.5 53.1984 57.1049 53.9017 56.4016C54.6049 55.6984 55 54.7446 55 53.75V47.5C55 47.1685 54.8683 46.8505 54.6339 46.6161C54.3995 46.3817 54.0815 46.25 53.75 46.25Z" fill="black"/>
</svg>
