<svg width="60" height="60" viewBox="0 0 60 60" fill="none" xmlns="http://www.w3.org/2000/svg">
<g clip-path="url(#clip0_230_7670)">
<path d="M30.0222 34.375H29.9776C27.4904 34.375 25.4741 36.3913 25.4741 38.8785V55.4957C25.4741 57.9829 27.4904 59.9992 29.9776 59.9992H30.0222C32.5094 59.9992 34.5257 57.9829 34.5257 55.4957V38.8785C34.5257 36.3913 32.5094 34.375 30.0222 34.375Z" fill="black"/>
<path d="M44.5359 21.5574C43.9312 18.4379 41.0801 15.4203 37.9687 14.7313C36.0797 14.3387 33.5098 13.9543 30 13.9473C26.4914 13.9531 23.9215 14.3387 22.0312 14.7313C18.9199 15.4203 16.0687 18.4367 15.4641 21.5574C15.0844 23.4594 14.6144 28.7609 14.6531 32.2684C14.6144 35.7758 15.0844 41.0785 15.4641 42.9793C16.0687 46.1 18.9199 49.1164 22.0312 49.8055C22.459 49.8945 22.9242 49.9824 23.4246 50.0668V38.9012C23.4246 35.2766 26.3742 32.327 29.9988 32.327C33.6234 32.327 36.573 35.2766 36.573 38.9012V50.0668C37.0734 49.9824 37.5387 49.8945 37.9664 49.8055C41.0777 49.1164 43.9289 46.1 44.5336 42.9793C44.9133 41.0785 45.3832 35.7758 45.3445 32.2684C45.3832 28.7609 44.9133 23.4582 44.5336 21.5574H44.5359ZM22.5902 26.8648C22.507 27.2926 22.1168 27.7063 21.6891 27.8012C21.4301 27.8551 21.0773 27.9078 20.5957 27.909C20.1141 27.909 19.7625 27.8551 19.5023 27.8012C19.0758 27.7063 18.6844 27.2926 18.6012 26.8648C18.5496 26.6035 18.4898 25.5383 18.4898 24.098C18.4898 22.6578 18.5484 21.5914 18.6012 21.3312C18.6844 20.9035 19.0746 20.4898 19.5023 20.3949C19.7613 20.341 20.1141 20.2883 20.5957 20.2871C21.0773 20.2871 21.4289 20.341 21.6891 20.3949C22.1156 20.4898 22.507 20.9035 22.5902 21.3312C22.6418 21.5926 22.7016 22.7398 22.7016 24.098C22.7016 25.5395 22.643 26.6047 22.5902 26.8648ZM41.3965 26.8648C41.3133 27.2926 40.923 27.7063 40.4953 27.8012C40.2363 27.8551 39.8836 27.9078 39.4019 27.909C38.9203 27.909 38.5687 27.8551 38.3086 27.8012C37.882 27.7063 37.4906 27.2926 37.4074 26.8648C37.3559 26.6035 37.2961 25.5383 37.2961 24.098C37.2961 22.6578 37.3547 21.5914 37.4074 21.3312C37.4906 20.9035 37.8809 20.4898 38.3086 20.3949C38.5676 20.341 38.9203 20.2883 39.4019 20.2871C39.8836 20.2871 40.2351 20.341 40.4953 20.3949C40.9219 20.4898 41.3133 20.9035 41.3965 21.3312C41.448 21.5926 41.5078 22.7398 41.5078 24.098C41.5078 25.5395 41.4492 26.6047 41.3965 26.8648Z" fill="#FCCE31"/>
<path d="M42.3961 5.0793H48.1781C48.8789 5.0793 49.4473 5.64766 49.4473 6.34844C49.4473 7.04922 48.8789 7.61758 48.1781 7.61758H42.3961C41.9344 8.51641 41.0004 9.13281 39.9199 9.13281H37.2398C36.3633 9.13281 35.5512 9.55352 35.0133 10.2449C33.852 11.7379 32.0379 12.6988 30 12.6988C27.9621 12.6988 26.148 11.7379 24.9867 10.2449C24.4488 9.55352 23.6355 9.13281 22.7602 9.13281H20.0801C18.9996 9.13281 18.0656 8.51641 17.6039 7.61758H11.8219C11.1211 7.61758 10.5527 7.04922 10.5527 6.34844C10.5527 5.64766 11.1211 5.0793 11.8219 5.0793H17.6039C18.0656 4.18047 18.9996 3.56406 20.0801 3.56406H22.7602C23.6367 3.56406 24.4488 3.14336 24.9867 2.45195C26.148 0.958984 27.9621 -0.00195312 30 -0.00195312C32.0379 -0.00195312 33.852 0.958984 35.0133 2.45195C35.5512 3.14336 36.3645 3.56406 37.2398 3.56406H39.9199C41.0004 3.56406 41.9344 4.18047 42.3961 5.0793Z" fill="#DB9800"/>
<path d="M26.4575 6.32383C26.4575 8.28086 28.0431 9.86641 30.0001 9.86641C31.9571 9.86641 33.5427 8.28086 33.5427 6.32383C33.5427 4.3668 31.9571 2.78125 30.0001 2.78125C28.0431 2.78125 26.4575 4.3668 26.4575 6.32383Z" fill="white"/>
</g>
<defs>
<clipPath id="clip0_230_7670">
<rect width="60" height="60" fill="white"/>
</clipPath>
</defs>
</svg>
